HIERARCHY
ROOT hip
{
	OFFSET 0.000000 0.000000 0.000000 
	CHANNELS 6 Xposition Yposition Zposition Xrotation Zrotation Yrotation
	JOINT abdomen
	{
		OFFSET 0.000000 3.402643 0.000000 
		CHANNELS 3 Xrotation Zrotation Yrotation
		JOINT chest
		{
			OFFSET 0.000000 8.438565 -0.680529 
			CHANNELS 3 Xrotation Zrotation Yrotation
			JOINT neck
			{
				OFFSET 0.000000 10.207942 -0.272212 
				CHANNELS 3 Xrotation Zrotation Yrotation
				JOINT head
				{
					OFFSET 0.000000 3.130431 0.000000 
					CHANNELS 3 Xrotation Zrotation Yrotation
					End Site
					{
						OFFSET 0.000000 3.130435 0.000000 
					}
				}
			}
			JOINT lCollar
			{
				OFFSET 3.470700 6.669187 -0.816635 
				CHANNELS 3 Yrotation Zrotation Xrotation
				JOINT lShldr
				{
					OFFSET 3.198488 0.000000 0.000000 
					CHANNELS 3 Zrotation Yrotation Xrotation
					JOINT lForeArm
					{
						OFFSET 10.139888 0.000000 0.000000 
						CHANNELS 3 Yrotation Zrotation Xrotation
						JOINT lHand
						{
							OFFSET 8.370511 0.000000 0.000000 
							CHANNELS 3 Zrotation Yrotation Xrotation
							End Site
							{
								OFFSET 4.083176 0.000000 0.000000 
							}
						}
					}
				}
			}
			JOINT rCollar
			{
				OFFSET -3.470700 6.669187 -0.816635 
				CHANNELS 3 Yrotation Zrotation Xrotation
				JOINT rShldr
				{
					OFFSET -3.198488 0.000000 0.000000 
					CHANNELS 3 Zrotation Yrotation Xrotation
					JOINT rForeArm
					{
						OFFSET -10.139888 0.000000 0.000000 
						CHANNELS 3 Yrotation Zrotation Xrotation
						JOINT rHand
						{
							OFFSET -8.370511 0.000000 0.000000 
							CHANNELS 3 Zrotation Yrotation Xrotation
							End Site
							{
								OFFSET -4.083176 0.000000 0.000000 
							}
						}
					}
				}
			}
		}
	}
	JOINT lThigh
	{
		OFFSET 5.308129 -1.633274 1.361059 
		CHANNELS 3 Xrotation Zrotation Yrotation
		JOINT lShin
		{
			OFFSET -2.041588 -20.007561 0.000000 
			CHANNELS 3 Xrotation Zrotation Yrotation
			JOINT lFoot
			{
				OFFSET 0.000000 -19.190928 -1.224953 
				CHANNELS 3 Xrotation Yrotation Zrotation
				End Site
				{
					OFFSET 0.000000 -2.449906 4.627600 
				}
			}
		}
	}
	JOINT rThigh
	{
		OFFSET -5.308129 -1.633274 1.361059 
		CHANNELS 3 Xrotation Zrotation Yrotation
		JOINT rShin
		{
			OFFSET 2.041588 -20.007561 0.000000 
			CHANNELS 3 Xrotation Zrotation Yrotation
			JOINT rFoot
			{
				OFFSET 0.000000 -19.190928 -1.224953 
				CHANNELS 3 Xrotation Yrotation Zrotation
				End Site
				{
					OFFSET 0.000000 -2.449906 4.627600 
				}
			}
		}
	}
}
MOTION
Frames: 11
Frame Time: 0.016667
0.197730 49.333065 0.901915 8.883815 -4.399914 2.174079 -1.337888 4.218284 4.146880 -1.747889 0.265084 1.824930 19.153435 -5.560541 27.438217 -0.009766 0.000000 0.000000 -0.966184 -2.090659 -0.113862 -104.017838 -13.790219 45.556686 -37.581448 -0.412564 24.859762 1.424694 -8.845126 -59.526157 0.956406 2.080914 -0.113715 91.980316 20.162531 34.942970 33.084869 1.066677 -0.808238 -0.798814 -3.453520 -30.985928 -29.900206 8.280913 -8.111581 37.660072 5.671063 4.121626 -15.577546 -3.875891 -1.856948 -25.288122 0.907778 1.826185 40.958717 -5.070438 -4.541966 -22.609554 -4.430239 -0.539877 
0.299143 49.351437 0.925729 8.940742 -4.244858 1.588342 -1.260291 4.100159 3.717407 -1.689305 0.255550 1.617716 18.716339 -5.623074 28.264526 -0.009766 0.000000 0.000000 -0.966184 -2.090659 -0.113862 -103.893486 -14.698253 47.801357 -36.781509 -0.397109 24.865564 0.965240 -8.813277 -54.645782 0.956406 2.080914 -0.113715 90.595108 18.272947 31.596483 35.886780 1.054947 -0.788058 -0.297571 -3.404835 -35.124821 -29.782452 8.241490 -7.821658 37.711594 5.657695 4.127470 -15.571930 -3.564230 -1.774804 -25.316740 0.907489 2.356040 40.837360 -5.090127 -4.518654 -22.489985 -4.443477 -0.508225 
0.427067 49.372509 0.953849 8.997712 -4.089847 0.915035 -1.195034 3.955271 3.381067 -1.640558 0.170330 1.459482 18.369308 -5.657701 28.981718 -0.009766 0.000000 0.000000 -0.966184 -2.090659 -0.113862 -103.826973 -15.816773 50.083561 -36.038422 -0.392528 24.875385 0.410145 -8.739670 -48.676697 0.956406 2.080914 -0.113715 89.575279 16.342110 28.053082 39.059681 1.038449 -0.764827 0.191468 -3.303686 -39.243000 -29.609270 8.222587 -7.428872 37.740761 5.661476 4.129035 -15.619843 -3.261133 -1.688660 -25.356625 0.858712 2.883242 40.658344 -5.099778 -4.501626 -22.367346 -4.344911 -0.464105 
0.577235 49.395832 0.988049 9.074304 -3.934667 0.172348 -1.121931 3.796067 3.129286 -1.562497 0.018919 1.352512 18.052195 -5.610513 29.628750 -0.009766 0.000000 0.000000 -0.966184 -2.090659 -0.113862 -103.805351 -17.115320 52.350185 -35.328259 -0.381057 24.880394 -0.239332 -8.570906 -41.531818 0.956406 2.080914 -0.113715 88.898682 14.458730 24.465670 42.505966 1.018851 -0.739308 0.575981 -3.194364 -42.627682 -29.328743 8.221344 -7.021775 37.713970 5.642179 4.132005 -15.665428 -2.891509 -1.576994 -25.384550 0.819475 3.380900 40.459785 -5.119228 -4.517089 -22.218616 -4.107162 -0.332239 
0.730000 49.424797 1.030194 9.131154 -3.760469 -0.721779 -1.060682 3.643748 2.987462 -1.513646 -0.104031 1.281800 17.775557 -5.488363 30.207045 -0.009766 0.000000 0.000000 -0.966184 -2.090659 -0.113862 -103.823303 -18.528154 54.547222 -34.601170 -0.369181 24.883015 -0.940975 -8.283149 -33.471851 0.956406 2.080914 -0.113715 88.510788 12.599095 21.048355 46.167038 0.997159 -0.711894 0.814885 -3.120362 -44.682095 -29.132580 8.221252 -6.545785 37.788929 5.671257 4.132843 -15.742602 -2.449866 -1.470506 -25.378315 0.791195 3.947695 40.118378 -5.162138 -4.481001 -22.007353 -3.791687 -0.217870 
0.927283 49.448582 1.071181 9.246579 -3.566452 -1.420155 -1.047513 3.461297 2.776715 -1.454829 -0.330921 1.213238 17.538292 -5.374471 30.766146 -0.009766 0.000000 0.000000 -0.966184 -2.090659 -0.113862 -103.936821 -20.047676 56.621639 -33.874847 -0.357101 24.889540 -1.615568 -7.887319 -25.026791 0.956406 2.080914 -0.113715 88.341278 10.808733 17.861492 50.052727 0.987177 -0.683445 0.921829 -3.083078 -45.621120 -29.002434 8.085607 -6.275215 37.813568 5.642348 4.153533 -15.753109 -1.976276 -1.355266 -25.495819 0.605131 4.278252 39.931870 -5.148386 -4.455508 -21.881128 -3.409588 -0.066940 
1.211853 49.456356 1.103543 9.469856 -3.390765 -1.581028 -1.060829 3.231347 2.322408 -1.316852 -0.812616 1.027994 17.303162 -5.336406 31.291084 -0.009766 0.000000 0.000000 -0.966184 -2.090659 -0.113862 -104.133614 -21.688808 58.480587 -33.359856 -0.354978 24.889690 -2.212454 -7.401956 -16.787535 0.956406 2.080914 -0.113715 88.350685 9.177239 14.862910 54.192158 0.969042 -0.646163 0.932401 -3.066300 -45.826263 -29.084227 7.635494 -6.545292 37.749378 5.612643 4.171815 -15.622244 -1.489007 -1.284856 -25.716209 0.126517 4.010301 39.779690 -5.174301 -4.424184 -21.844845 -2.951180 0.071132 
1.515209 49.457767 1.136861 9.683084 -3.186466 -1.666700 -1.055592 3.033439 1.859029 -1.178009 -1.255929 0.830895 17.062561 -5.371253 31.813515 -0.009766 0.000000 0.000000 -0.966184 -2.090659 -0.113862 -104.385002 -23.393772 60.020554 -33.216545 -0.346779 24.896351 -2.698634 -6.898144 -9.370552 0.956406 2.080914 -0.113715 88.523911 7.778206 12.032310 58.565895 0.958316 -0.602077 0.922926 -3.081959 -45.630760 -29.247349 7.099482 -6.901836 37.740322 5.602880 4.158748 -15.484584 -0.945447 -1.185284 -25.950283 -0.420137 3.677244 39.648434 -5.203473 -4.432621 -21.780315 -2.500179 0.215660 
1.743107 49.473072 1.182109 9.768888 -2.945029 -2.362615 -0.995427 2.910424 1.715833 -1.079523 -1.387505 0.774141 16.866571 -5.435561 32.366638 -0.009766 0.000000 0.000000 -0.966184 -2.090659 -0.113862 -104.709442 -25.148716 61.310455 -33.570385 -0.348882 24.890673 -3.031139 -6.442403 -3.361402 0.956406 2.080914 -0.113715 88.798225 6.616070 9.481551 63.144875 0.952361 -0.566554 0.862336 -3.103315 -45.142303 -29.090456 6.854973 -6.651000 37.746082 5.563518 4.165812 -15.480251 -0.371937 -1.027947 -26.123058 -0.693901 3.972647 39.525349 -5.232788 -4.403418 -21.696018 -2.086894 0.382239 
1.907525 49.495331 1.228951 9.825266 -2.675083 -3.520151 -0.898721 2.856127 1.843534 -1.001965 -1.292649 0.836500 16.767794 -5.516195 32.877735 -0.009766 0.000000 0.000000 -0.966184 -2.090659 -0.113862 -105.105309 -27.005203 62.727161 -34.448761 -0.365115 24.882742 -3.234195 -6.105604 0.894905 0.956406 2.080914 -0.113715 89.058273 5.748070 7.227030 67.801910 0.942914 -0.523938 0.770450 -3.128325 -44.359020 -28.790522 6.873815 -5.931040 37.767044 5.553833 4.162796 -15.581892 0.112591 -0.908148 -26.286015 -0.722635 4.692792 39.353951 -5.259986 -4.391533 -21.506628 -1.676743 0.558511 
2.054705 49.511108 1.265478 9.920937 -2.404942 -4.688121 -0.802497 2.830155 2.008677 -0.895329 -1.150541 0.901423 16.708414 -5.585814 33.385811 -0.009766 0.000000 0.000000 -0.966184 -2.090659 -0.113862 -105.644707 -28.989229 64.428009 -35.768433 -0.392937 24.878458 -3.356176 -5.886302 3.530936 0.956406 2.080914 -0.113715 89.145035 5.232080 5.327624 72.400452 0.936062 -0.484632 0.631712 -3.173199 -43.165977 -28.561441 6.952601 -5.152397 37.797073 5.553903 4.172838 -15.719315 0.530701 -0.768412 -26.516947 -0.703682 5.506415 39.237625 -5.242419 -4.384353 -21.317543 -1.330199 0.716889 
